<svg width="155" height="41" viewBox="0 0 155 41" fill="none" xmlns="http://www.w3.org/2000/svg">
<path d="M78.0362 9.08545C80.668 9.08545 82.9668 9.62448 84.9326 10.7025C86.9302 11.7806 88.4681 13.3026 89.5461 15.2685C90.6559 17.2343 91.2108 19.5173 91.2108 22.1173C91.2108 24.6857 90.6876 26.9528 89.6412 28.9186C88.5949 30.8845 87.1205 32.4065 85.218 33.4846C83.3473 34.5626 81.1753 35.1016 78.7021 35.1016C75.1825 35.1016 72.4239 33.976 70.4264 31.7248V35.9957H64.4336V22.1649C64.4336 19.5966 65.0043 17.3295 66.1458 15.3636C67.2873 13.366 68.8727 11.8282 70.902 10.7501C72.963 9.64033 75.3411 9.08545 78.0362 9.08545ZM77.7984 30.0601C80.0179 30.0601 81.8253 29.3308 83.2204 27.8723C84.6156 26.382 85.3131 24.4637 85.3131 22.1173C85.3131 19.771 84.6156 17.8526 83.2204 16.3624C81.8253 14.8721 80.0179 14.127 77.7984 14.127C75.5472 14.127 73.7398 14.8563 72.3764 16.3148C71.0129 17.7734 70.3312 19.6917 70.3312 22.0698C70.3312 24.4478 71.0129 26.382 72.3764 27.8723C73.7715 29.3308 75.5789 30.0601 77.7984 30.0601Z" fill="currentColor"/>
<path d="M119.223 9.37085V34.7687H113.563V31.5346C112.612 32.676 111.423 33.5639 109.996 34.198C108.601 34.8005 107.079 35.1017 105.43 35.1017C102.037 35.1017 99.3581 34.1663 97.3922 32.2955C95.4263 30.3931 94.4434 27.5869 94.4434 23.8771V9.37085H100.389V23.0686C100.389 25.3515 100.896 27.0638 101.911 28.2052C102.957 29.315 104.447 29.8699 106.381 29.8699C108.474 29.8699 110.139 29.2199 111.375 27.9199C112.644 26.5881 113.278 24.6857 113.278 22.2125V9.37085H119.223Z" fill="currentColor"/>
<path d="M14.7917 1C17.7722 1 20.3722 1.58659 22.5918 2.75978C24.8113 3.93297 26.5235 5.67689 27.7284 7.99156C28.965 10.2745 29.5833 13.0489 29.5833 16.3148V34.7687H23.4003V26.2077H6.08789V34.7687H0V16.3148C0 13.0489 0.602447 10.2745 1.80734 7.99156C3.04394 5.67689 4.77201 3.93297 6.99156 2.75978C9.2111 1.58659 11.8111 1 14.7917 1ZM23.4003 21.0234V15.7441C23.4003 12.6684 22.6393 10.3538 21.1174 8.8001C19.5954 7.21472 17.471 6.42202 14.7441 6.42202C12.0172 6.42202 9.89281 7.21472 8.37084 8.8001C6.84887 10.3538 6.08789 12.6684 6.08789 15.7441V21.0234H23.4003Z" fill="currentColor"/>
<path d="M48.5022 10.6074C50.912 10.6074 53.0364 11.1306 54.8755 12.1769C56.7145 13.1916 58.1414 14.6184 59.156 16.4575C60.2024 18.2965 60.7256 20.4051 60.7256 22.7832C60.7256 25.2247 60.1548 27.3966 59.0133 29.2991C57.8719 31.1699 56.2706 32.6284 54.2096 33.6748C52.1486 34.7211 49.8022 35.2443 47.1705 35.2443C42.7631 35.2443 39.3545 33.7857 36.9448 30.8686C34.535 27.9515 33.3301 23.7502 33.3301 18.2648C33.3301 13.1599 34.424 9.11712 36.6118 6.1366V6.1366C40.9796 0.186251 50.0678 1.00035 57.4491 1.00032L148.884 1V6.42197H53.9535C50.9893 6.42197 48.0026 6.44074 45.1102 7.0887C43.6831 7.40838 42.3104 7.85767 41.7009 8.46712C40.1789 9.98909 39.2911 12.1294 39.0375 14.8879C40.1789 13.5245 41.5582 12.4781 43.1753 11.7489C44.7924 10.9879 46.5681 10.6074 48.5022 10.6074ZM47.3132 30.4406C49.501 30.4406 51.2608 29.743 52.5925 28.3479C53.956 26.921 54.6377 25.1137 54.6377 22.9258C54.6377 20.738 53.956 18.9782 52.5925 17.6465C51.2608 16.3148 49.501 15.6489 47.3132 15.6489C45.0936 15.6489 43.3022 16.3148 41.9387 17.6465C40.5753 18.9782 39.8936 20.738 39.8936 22.9258C39.8936 25.1454 40.5753 26.9527 41.9387 28.3479C43.3339 29.743 45.1254 30.4406 47.3132 30.4406Z" fill="#FF0048"/>
<path d="M145.036 12.5405C143.123 10.8514 140.753 9.76739 138.224 9.42562C135.695 9.08385 133.121 9.49964 130.829 10.6204C128.536 11.7412 126.628 13.5166 125.344 15.7222C124.061 17.9278 123.46 20.4644 123.618 23.0113C123.776 25.5582 124.686 28.0011 126.233 30.0309C127.779 32.0607 129.893 33.5864 132.306 34.415C134.72 35.2435 137.325 35.3378 139.792 34.6858C142.259 34.0338 144.478 32.6648 146.167 30.752L142.312 27.3476C141.296 28.4979 139.962 29.3212 138.478 29.7133C136.995 30.1054 135.428 30.0487 133.976 29.5504C132.525 29.0522 131.254 28.1347 130.324 26.914C129.394 25.6933 128.847 24.2242 128.752 22.6926C128.656 21.1609 129.018 19.6354 129.789 18.3091C130.561 16.9827 131.709 15.915 133.088 15.241C134.467 14.567 136.014 14.3169 137.535 14.5225C139.056 14.728 140.481 15.3799 141.632 16.3957L145.036 12.5405Z" fill="currentColor"/>
</svg>
